<svg width="800" height="600" xmlns="http://www.w3.org/2000/svg">
  <defs>
    <marker id="arrowhead" markerWidth="10" markerHeight="7" refX="0" refY="3.5" orient="auto">
      <polygon points="0 0, 10 3.5, 0 7" />
    </marker>
  </defs>

  <style>
    .component {
      rx: 5;
      ry: 5;
      stroke: #333;
      stroke-width: 2;
      fill: #f0f0f0;
    }
    .external-service {
      rx: 5;
      ry: 5;
      stroke: #333;
      stroke-width: 2;
      fill: #4A4A4A; /* Dark Gray */
    }
    .text {
      font-family: Arial, sans-serif;
      font-size: 14px;
      text-anchor: middle;
      fill: #000000; /* Default black for other texts */
    }
    .text-on-dark {
      font-family: Arial, sans-serif;
      font-size: 13px;
      text-anchor: middle;
      fill: #FFFFFF; /* White text */
    }
    .line {
      stroke: #333;
      stroke-width: 1.5;
      marker-end: url(#arrowhead);
    }
  </style>

  <!-- Components -->
  <rect x="250" y="50" width="150" height="70" class="component" />
  <text x="325" y="90" class="text">MainActivity</text>

  <rect x="250" y="170" width="150" height="70" class="component" />
  <text x="325" y="210" class="text">MainViewModel</text>

  <rect x="50" y="110" width="150" height="70" class="component" />
  <text x="125" y="150" class="text">CameraScreen</text>

  <rect x="50" y="230" width="150" height="70" class="component" />
  <text x="125" y="270" class="text">ImageComparator</text>

  <rect x="450" y="50" width="150" height="70" class="component" />
  <text x="525" y="90" class="text">SettingsActivity</text>

  <rect x="450" y="170" width="150" height="70" class="component" />
  <text x="525" y="210" class="text">HelpDialog</text>

  <!-- External Services -->
  <rect x="225" y="320" width="200" height="70" class="external-service" />
  <text x="325" y="350" class="text-on-dark">
    <tspan x="325" dy="0">Telegram Bot API</tspan>
    <tspan x="325" dy="1.2em">(Alerts)</tspan>
  </text>

  <rect x="225" y="440" width="200" height="70" class="external-service" />
  <text x="325" y="470" class="text-on-dark">
    <tspan x="325" dy="0">Gemini AI API</tspan>
    <tspan x="325" dy="1.2em">(Image Analysis)</tspan>
  </text>

  <!-- Connections -->
  <!-- MainActivity -> MainViewModel -->
  <line x1="325" y1="120" x2="325" y2="170" class="line" />
  <!-- MainActivity -> CameraScreen -->
  <line x1="250" y1="85" x2="200" y2="145" class="line" />
  <!-- MainActivity -> SettingsActivity -->
  <line x1="400" y1="85" x2="450" y2="85" class="line" />
  <!-- MainActivity -> HelpDialog -->
  <line x1="400" y1="100" x2="450" y2="195" class="line" />
  
  <!-- MainViewModel -> Telegram API -->
  <line x1="325" y1="240" x2="325" y2="320" class="line" />
  <!-- MainViewModel -> AI Service -->
  <line x1="325" y1="240" x2="325" y2="440" class="line" />
  <!-- MainViewModel -> ImageComparator (indirectly via MainActivity) -->
  <line x1="250" y1="205" x2="200" y2="265" class="line" /> 

  <!-- CameraScreen -> MainActivity (for ImageCapture) -->
  <line x1="200" y1="145" x2="250" y2="100" class="line" />

  <!-- ImageComparator -> MainActivity (for results) -->
   <line x1="200" y1="255" x2="250" y2="115" class="line" />

</svg>